<!-- Generated by IcoMoon.io -->
<svg version="1.1" xmlns="http://www.w3.org/2000/svg" width="32" height="32" viewBox="0 0 32 32">
<title>applemusic</title>
<path d="M31.996 8.165c0-0.984-0.087-1.96-0.32-2.92-0.423-1.747-1.416-3.080-2.907-4.057-0.765-0.499-1.605-0.808-2.503-0.969-0.689-0.124-1.384-0.18-2.085-0.2-0.053-0.004-0.111-0.013-0.165-0.017h-16.032c-0.203 0.013-0.404 0.023-0.607 0.035-0.996 0.057-1.987 0.164-2.924 0.535-1.781 0.707-3.067 1.936-3.82 3.707-0.256 0.597-0.389 1.233-0.484 1.877-0.075 0.523-0.117 1.047-0.133 1.573 0 0.043-0.009 0.083-0.013 0.124v16.297c0.013 0.187 0.023 0.377 0.036 0.565 0.067 1.087 0.205 2.165 0.663 3.164 0.867 1.893 2.317 3.137 4.312 3.736 0.56 0.169 1.141 0.249 1.724 0.304 0.74 0.071 1.48 0.080 2.223 0.080h14.707c0.7 0 1.397-0.045 2.093-0.133 1.097-0.141 2.129-0.467 3.061-1.080 1.12-0.737 1.963-1.716 2.507-2.944 0.248-0.56 0.391-1.16 0.493-1.765 0.151-0.9 0.184-1.811 0.183-2.72-0.003-5.067 0-10.127-0.004-15.191zM23.432 13.485v7.616c0 0.556-0.077 1.103-0.325 1.608-0.387 0.787-1.013 1.283-1.851 1.52-0.467 0.133-0.941 0.209-1.427 0.231-1.267 0.060-2.364-0.8-2.591-2.048-0.189-1.031 0.303-2.165 1.384-2.696 0.431-0.213 0.893-0.333 1.357-0.432 0.504-0.109 1.011-0.204 1.512-0.32 0.365-0.084 0.609-0.307 0.68-0.688 0.019-0.084 0.027-0.173 0.027-0.257 0-2.42 0-4.84-0.003-7.257 0-0.083-0.013-0.167-0.035-0.247-0.053-0.2-0.2-0.324-0.405-0.312-0.213 0.013-0.424 0.047-0.633 0.088-1.013 0.2-2.027 0.404-3.040 0.608l-4.933 0.997c-0.021 0.004-0.043 0.013-0.064 0.017-0.369 0.103-0.503 0.271-0.52 0.653-0.003 0.056 0 0.115 0 0.173-0.003 3.469 0 6.939-0.004 10.407 0 0.56-0.063 1.115-0.287 1.636-0.371 0.853-1.027 1.387-1.912 1.644-0.467 0.133-0.947 0.213-1.433 0.229-1.28 0.048-2.34-0.8-2.56-2.059-0.187-1.083 0.307-2.247 1.539-2.767 0.476-0.2 0.973-0.309 1.477-0.413 0.383-0.080 0.767-0.155 1.147-0.236 0.511-0.111 0.777-0.431 0.8-0.952v-0.2c0-3.947 0-7.896 0.003-11.843 0-0.164 0.017-0.333 0.056-0.493 0.093-0.38 0.364-0.597 0.728-0.691 0.34-0.088 0.687-0.149 1.032-0.22 0.977-0.2 1.955-0.395 2.933-0.592l3.027-0.613c0.893-0.179 1.787-0.36 2.68-0.537 0.293-0.057 0.591-0.117 0.885-0.141 0.413-0.033 0.697 0.227 0.739 0.643 0.011 0.097 0.016 0.197 0.016 0.297 0.003 2.547 0.003 5.096 0 7.643z"></path>
</svg>
