<!-- Generated by IcoMoon.io -->
<svg version="1.1" xmlns="http://www.w3.org/2000/svg" width="32" height="32" viewBox="0 0 32 32">
<title>microsoftword</title>
<path fill="#2b579a" d="M31.999 4.977v22.063c0 0.188-0.067 0.34-0.199 0.461-0.135 0.125-0.295 0.184-0.48 0.184h-11.412v-3.060h9.309v-1.393h-9.317v-1.705h9.309v-1.392h-9.303v-1.72h9.307v-1.376h-9.307v-1.724h9.307v-1.392h-9.307v-1.705h9.307v-1.391h-9.307v-1.74h9.307v-1.325h-9.307v-3.457h11.416c0.199 0 0.36 0.064 0.477 0.199 0.14 0.132 0.2 0.293 0.199 0.475zM18.2 0.855v30.296l-18.2-3.149v-23.912l18.2-3.235zM15.453 9.799l-2.279 0.14-1.461 9.047h-0.033c-0.072-0.428-0.34-1.927-0.82-4.489l-0.852-4.351-2.139 0.107-0.856 4.244c-0.5 2.472-0.779 3.911-0.852 4.315h-0.020l-1.3-8.333-1.96 0.104 2.1 10.511 2.179 0.14 0.82-4.091c0.48-2.4 0.76-3.795 0.82-4.176h0.060c0.081 0.407 0.341 1.832 0.82 4.28l0.82 4.211 2.36 0.14 2.64-11.8h-0.047z"></path>
</svg>
