<!-- Generated by IcoMoon.io -->
<svg version="1.1" xmlns="http://www.w3.org/2000/svg" width="32" height="32" viewBox="0 0 32 32">
<title>microsoftonedrive</title>
<path fill="#094ab2" d="M6.56 23.416c-0.665 0.407-1.412 0.609-2.24 0.609-1.227-0.039-2.24-0.461-3.049-1.268-0.809-0.801-1.229-1.823-1.271-3.043 0.021-1.149 0.388-2.125 1.107-2.923 0.72-0.801 1.633-1.264 2.744-1.4-0.040-0.237-0.056-0.489-0.056-0.755 0.040-1.52 0.56-2.779 1.56-3.759 1.005-0.98 2.267-1.5 3.789-1.54 0.959 0 1.819 0.22 2.579 0.68 0.64-1.021 1.461-1.86 2.481-2.479 1.039-0.62 2.2-0.94 3.479-0.961 1.721 0.040 3.18 0.581 4.419 1.62 1.24 1.040 2.021 2.38 2.341 4.040h-0.38c-0.62 0-1.159 0.080-1.64 0.259-0.639-0.68-1.38-1.197-2.219-1.559-0.82-0.361-1.72-0.52-2.681-0.52-0.88 0-1.72 0.139-2.52 0.44-0.8 0.3-1.52 0.719-2.16 1.279-0.56 0.48-1.020 1.021-1.4 1.64s-0.64 1.28-0.78 1.98c-0.48 0.1-0.94 0.239-1.361 0.419-0.68 0.319-1.259 0.759-1.719 1.34-0.44 0.5-0.781 1.081-1 1.74-0.22 0.661-0.341 1.341-0.341 2.060 0 0.8 0.121 1.541 0.401 2.221l-0.083-0.121zM29.024 18.42c2.101 0.521 3.091 1.76 2.967 3.708-0.123 1.951-1.257 3.049-3.407 3.295h-16.984c-2.805-0.369-4.184-1.82-4.136-4.351 0.045-2.54 1.472-3.939 4.28-4.18 0.367-2.72 1.755-4.4 4.16-5.040 2.408-0.659 4.456 0.081 6.149 2.241 0.581-0.48 1.315-0.681 2.2-0.621 0.891 0.060 1.645 0.241 2.263 0.581 0.8 0.419 1.44 1.020 1.861 1.781 0.417 0.757 0.639 1.62 0.639 2.559l0.008 0.027z"></path>
</svg>
