<!-- Generated by IcoMoon.io -->
<svg version="1.1" xmlns="http://www.w3.org/2000/svg" width="32" height="32" viewBox="0 0 32 32">
<title>microsoftaccess</title>
<path fill="#ba141a" d="M32 20.025c-0.068 0.723-1.031 1.3-2.887 1.72-1.856 0.427-4.184 0.639-6.987 0.639-0.828 0-1.621-0.011-2.38-0.035v4.377c0.759 0.044 1.552 0.071 2.38 0.071 2.792-0.027 5.12-0.273 6.979-0.751s2.827-1.077 2.895-1.801v-4.22zM22.091 16.869c-0.804 0-1.599-0.021-2.379-0.068l0.035 4.46c0.76 0.021 1.551 0.040 2.38 0.040 2.8-0.020 5.131-0.26 6.985-0.74 1.856-0.461 2.82-1.060 2.887-1.78v-4.301c-0.068 0.724-1.035 1.304-2.904 1.74-1.865 0.44-4.2 0.66-7.005 0.66v-0.011zM22.091 11.373c-0.804 0-1.599-0.025-2.379-0.071v4.447c0.78 0.045 1.576 0.071 2.379 0.071 2.801-0.025 5.14-0.271 7.005-0.74 1.868-0.472 2.836-1.071 2.904-1.795v-4.273c-0.068 0.725-1.035 1.301-2.904 1.725-1.865 0.423-4.2 0.639-7.005 0.639v-0.003zM22.091 5.204c-0.804 0-1.599 0.033-2.379 0.103v4.929c0.78 0.045 1.576 0.067 2.379 0.067 2.801-0.020 5.14-0.265 7.005-0.731 1.869-0.464 2.836-1.067 2.904-1.801-0.068-0.723-1.035-1.327-2.904-1.808-1.865-0.48-4.2-0.72-7.005-0.741v-0.017zM8.632 12.148c-0.043 0.263-0.228 1.099-0.549 2.5l-0.6 2.445 2.4 0.033-0.56-2.447c-0.341-1.425-0.561-2.279-0.601-2.52h-0.080l-0.009-0.012zM0 4.204v23.679l18.060 3.117v-30l-18.060 3.204zM11.045 21.849l-0.672-2.669-3.325-0.12-0.639 2.515-2.121-0.14 3.225-11.3 2.467-0.139 3.519 11.993-2.453-0.14z"></path>
</svg>
