<!-- Generated by IcoMoon.io -->
<svg version="1.1" xmlns="http://www.w3.org/2000/svg" width="32" height="32" viewBox="0 0 32 32">
<title>microsoftonenote</title>
<path fill="#80397b" d="M31.929 13.579v4.791c0 0.185-0.067 0.344-0.199 0.479-0.133 0.131-0.293 0.2-0.476 0.2h-1.039v-6.149h1.039c0.184 0 0.344 0.067 0.476 0.199 0.132 0.136 0.199 0.292 0.199 0.481zM31.253 19.757c0.184 0 0.344 0.067 0.476 0.199s0.199 0.293 0.199 0.476v4.809c0 0.187-0.067 0.344-0.199 0.48-0.133 0.129-0.293 0.195-0.476 0.195h-1.039v-6.161h1.039zM31.253 6.037c0.184 0 0.356 0.068 0.512 0.2 0.156 0.136 0.235 0.295 0.235 0.48v4.792c0 0.196-0.081 0.361-0.235 0.487-0.156 0.12-0.328 0.18-0.512 0.18h-1.719v14.779c0 0.18-0.071 0.32-0.209 0.441-0.14 0.1-0.299 0.16-0.485 0.16h-8.939v-3.020h6.943v-1.441h-6.943v-1.697h6.943v-1.361h-6.943v-1.74h6.943v-1.34h-6.943v-1.699h6.943v-1.341h-6.943v-1.74h6.943v-1.36h-6.943v-1.7h6.943v-1.42h-6.943v-3.377h9.183c0.021 0 0.1 0.059 0.225 0.18 0.127 0.125 0.203 0.279 0.227 0.459v1.081h1.717zM18.195 0.885v30.229l-18.195-3.141v-23.865l18.195-3.223zM13.004 9.845l-2.135 0.14v3.972c-0.024 2.327-0.024 3.671 0 4.028l-4.253-7.759-2.172 0.085v11.008l1.699 0.139v-8.123l4.587 8.353 2.273 0.139v-11.983z"></path>
</svg>
