<!-- Generated by IcoMoon.io -->
<svg version="1.1" xmlns="http://www.w3.org/2000/svg" width="32" height="32" viewBox="0 0 32 32">
<title>microsoftedge</title>
<path fill="#0078d7" d="M30.877 19h-20.449c0 0.771 0.115 1.471 0.349 2.1 0.251 0.62 0.575 1.175 0.991 1.66 0.413 0.485 0.9 0.9 1.469 1.251 0.551 0.349 1.151 0.64 1.791 0.864 0.635 0.231 1.3 0.4 1.973 0.511 0.632 0.105 1.361 0.166 2.103 0.166 0.817 0 1.616-0.073 2.393-0.212l-0.082 0.012c0.752-0.14 1.481-0.325 2.201-0.56 0.72-0.236 1.415-0.516 2.111-0.836 0.7-0.32 1.409-0.669 2.14-1.060v6.78c-0.816 0.4-1.616 0.736-2.416 1.025-0.8 0.28-1.6 0.525-2.413 0.72-0.816 0.2-1.64 0.351-2.487 0.44-0.782 0.089-1.69 0.14-2.609 0.14h-0c-1.2 0-2.36-0.14-3.475-0.415-1.192-0.295-2.238-0.703-3.213-1.226l0.073 0.036c-1.024-0.548-1.907-1.175-2.701-1.899l0.011 0.009c-1.605-1.456-2.808-3.328-3.438-5.446l-0.022-0.084c-0.301-1.022-0.475-2.195-0.475-3.41 0-0.025 0-0.049 0-0.074l-0 0.004c0-1.315 0.18-2.565 0.54-3.76 0.365-1.2 0.88-2.289 1.56-3.289 0.7-1.026 1.518-1.905 2.45-2.647l0.024-0.019c0.947-0.754 2.033-1.394 3.203-1.869l0.088-0.031c-0.656 0.656-1.182 1.443-1.534 2.319l-0.017 0.047c-0.342 0.798-0.593 1.724-0.71 2.691l-0.005 0.049h11.389c0-1.151-0.115-2.151-0.349-3.011s-0.611-1.575-1.135-2.14c-0.52-0.569-1.191-1-2.016-1.28-0.824-0.285-1.82-0.429-2.984-0.429-1.376 0-2.751 0.2-4.125 0.615-1.375 0.4-2.68 0.975-3.92 1.7-1.24 0.735-2.38 1.6-3.42 2.589-1.040 1-1.915 2.076-2.625 3.24 0.166-1.446 0.471-2.761 0.905-4.015l-0.040 0.131c0.415-1.235 0.964-2.385 1.625-3.452 0.687-1.085 1.453-2.025 2.317-2.866l0.003-0.003c0.884-0.86 1.864-1.6 2.949-2.2 1.085-0.599 2.235-1.084 3.485-1.411 1.195-0.287 2.568-0.452 3.979-0.453h0.001c0.82 0 1.635 0.075 2.449 0.22 0.816 0.151 1.611 0.351 2.387 0.611 1.539 0.529 2.913 1.269 4.124 2.209 1.184 0.925 2.193 2.003 3.018 3.216l0.031 0.049c0.827 1.235 1.451 2.6 1.88 4.084 0.431 1.485 0.651 3.031 0.651 4.636v3.975z"></path>
</svg>
