<!-- Generated by IcoMoon.io -->
<svg version="1.1" xmlns="http://www.w3.org/2000/svg" width="32" height="32" viewBox="0 0 32 32">
<title>microsoftpowerpoint</title>
<path fill="#d24726" d="M31.312 5.333h-11.389v4.248c0.687-0.52 1.509-0.784 2.473-0.784v4.131h4.099c-0.020 1.159-0.42 2.136-1.201 2.924-0.779 0.789-1.757 1.195-2.917 1.221-0.9-0.027-1.72-0.297-2.439-0.82v2.839h8.959v1.393h-8.961v1.724h8.953v1.376h-8.959v3.12h11.391c0.461 0 0.68-0.243 0.68-0.716v-19.976c0-0.456-0.219-0.68-0.68-0.68h-0.008zM23.040 12.248v-4.165c1.16 0.027 2.133 0.429 2.917 1.213 0.781 0.784 1.188 1.768 1.208 2.952h-4.125zM11.008 12.317c-0.071-0.268-0.187-0.476-0.351-0.629-0.16-0.149-0.376-0.259-0.644-0.328-0.3-0.081-0.609-0.12-0.92-0.12l-0.96 0.019v3.999h0.035c0.348 0.021 0.713 0.021 1.1 0 0.38-0.020 0.74-0.12 1.079-0.3 0.417-0.3 0.667-0.7 0.748-1.219 0.080-0.521 0.052-1.021-0.085-1.481v0.060zM0 4.079v23.928l18.251 3.153v-30.32l-18.251 3.239zM13.617 14.861c-0.5 1.159-1.247 1.9-2.245 2.22-0.999 0.319-2.077 0.443-3.239 0.372v4.563l-2.401-0.279v-12.536l3.812-0.199c0.707-0.044 1.405 0.033 2.088 0.24 0.687 0.203 1.229 0.612 1.631 1.229 0.4 0.615 0.625 1.328 0.68 2.14 0.049 0.812-0.057 1.563-0.325 2.249z"></path>
</svg>
