<!-- Generated by IcoMoon.io -->
<svg version="1.1" xmlns="http://www.w3.org/2000/svg" width="32" height="32" viewBox="0 0 32 32">
<title>opera</title>
<path fill="#ff1b2d" d="M10.735 6.984c-1.771 2.088-2.915 5.177-2.995 8.64v0.752c0.081 3.464 1.224 6.549 2.995 8.639 2.295 2.981 5.705 4.872 9.519 4.872 2.341 0 4.533-0.716 6.409-1.961-2.824 2.536-6.564 4.075-10.663 4.075-0.256 0-0.511-0.005-0.76-0.019-8.488-0.396-15.24-7.4-15.24-15.981 0-8.839 7.164-16 16-16h0.060c4.073 0.016 7.787 1.555 10.604 4.073-1.877-1.24-4.068-1.961-6.413-1.961-3.811 0-7.223 1.893-9.52 4.872h0.004zM32 16c0 4.741-2.060 8.997-5.336 11.927-4.104 2-7.928 0.601-9.195-0.273 4.031-0.885 7.076-5.76 7.076-11.653 0-5.896-3.044-10.767-7.076-11.653 1.265-0.872 5.091-2.271 9.195-0.273 3.276 2.927 5.336 7.187 5.336 11.927z"></path>
</svg>
