<!-- Generated by IcoMoon.io -->
<svg version="1.1" xmlns="http://www.w3.org/2000/svg" width="32" height="32" viewBox="0 0 32 32">
<title>skype</title>
<path fill="#00aff0" d="M16.092 25.165c-5.364 0-7.76-2.639-7.76-4.619 0-1.020 0.748-1.728 1.777-1.728 2.297 0 1.697 3.303 5.983 3.303 2.188 0 3.4-1.193 3.4-2.415 0-0.735-0.359-1.547-1.805-1.905l-4.768-1.193c-3.84-0.965-4.537-3.048-4.537-5.001 0-4.063 3.815-5.588 7.399-5.588 3.295 0 7.191 1.831 7.191 4.265 0 1.045-0.917 1.653-1.937 1.653-1.959 0-1.597-2.716-5.552-2.716-1.959 0-3.056 0.885-3.056 2.156s1.537 1.677 2.876 1.983l3.516 0.783c3.855 0.865 4.832 3.128 4.832 5.259 0 3.301-2.536 5.765-7.629 5.765zM30.799 18.657l-0.039 0.18-0.059-0.32c0.020 0.060 0.059 0.099 0.079 0.16 0.16-0.9 0.241-1.817 0.241-2.736 0-2.039-0.401-4.016-1.197-5.893-0.759-1.797-1.86-3.416-3.236-4.795-1.399-1.377-2.996-2.475-4.793-3.235-1.757-0.841-3.735-1.24-5.771-1.24-0.96 0-1.925 0.093-2.857 0.272l0.159 0.080-0.319-0.044 0.159-0.033c-1.285-0.688-2.727-1.053-4.191-1.053-2.385 0-4.627 0.931-6.315 2.623-1.688 1.691-2.617 3.941-2.617 6.332 0 1.524 0.389 3.020 1.125 4.344l0.027-0.165 0.055 0.319-0.080-0.153c-0.152 0.86-0.229 1.732-0.229 2.607 0 2.040 0.4 4.023 1.179 5.888 0.757 1.816 1.837 3.435 3.236 4.812 1.379 1.4 2.996 2.476 4.793 3.256 1.859 0.8 3.836 1.197 5.872 1.197 0.879 0 1.779-0.080 2.636-0.239l-0.159-0.083 0.32 0.061-0.18 0.040c1.336 0.759 2.835 1.161 4.392 1.161 2.377 0 4.612-0.92 6.311-2.617 1.679-1.679 2.616-3.935 2.616-6.332 0-1.517-0.399-3.016-1.137-4.355z"></path>
</svg>
