<!-- Generated by IcoMoon.io -->
<svg version="1.1" xmlns="http://www.w3.org/2000/svg" width="32" height="32" viewBox="0 0 32 32">
<title>vk</title>
<path fill="#6383a8" d="M15.601 25.028h1.916s0.577-0.063 0.872-0.379c0.28-0.295 0.28-0.84 0.28-0.84s-0.041-2.569 1.159-2.947c1.183-0.375 2.683 2.48 4.281 3.577 1.221 0.839 2.14 0.659 2.14 0.659l4.281-0.059s2.243-0.14 1.183-1.901c-0.081-0.14-0.601-1.3-3.161-3.68-2.683-2.481-2.323-2.081 0.901-6.383 1.959-2.62 2.76-4.221 2.5-4.901-0.221-0.64-1.68-0.481-1.68-0.481l-4.803 0.041s-0.36-0.041-0.62 0.12c-0.26 0.159-0.419 0.521-0.419 0.521s-0.763 2.039-1.781 3.76c-2.164 3.639-3.024 3.839-3.364 3.599-0.805-0.521-0.599-2.107-0.599-3.243 0-3.521 0.539-5-1.041-5.38-0.52-0.121-0.908-0.2-2.247-0.221-1.72-0.019-3.171 0.013-3.993 0.415-0.54 0.271-0.96 0.869-0.719 0.9 0.32 0.040 1.039 0.195 1.419 0.716 0.5 0.675 0.479 2.181 0.479 2.181s0.281 4.155-0.659 4.671c-0.66 0.349-1.54-0.373-3.46-3.675-0.98-1.68-1.721-3.56-1.721-3.56s-0.14-0.341-0.399-0.541c-0.303-0.22-0.743-0.3-0.743-0.3l-4.58 0.040s-0.68 0.021-0.919 0.32c-0.221 0.26-0.021 0.82-0.021 0.82s3.581 8.383 7.643 12.604c3.72 3.869 7.941 3.62 7.941 3.62l-0.067-0.073z"></path>
</svg>
