<!-- Generated by IcoMoon.io -->
<svg version="1.1" xmlns="http://www.w3.org/2000/svg" width="32" height="32" viewBox="0 0 32 32">
<title>vlcmediaplayer</title>
<path fill="#f80" d="M15.855 17.951c5.009 0 6.472-1.796 6.753-2.232l-1.813-5.779c-0.48 0.453-1.769 1.249-4.907 1.249-3.056 0-4.251-0.756-4.693-1.213l-1.853 5.896c0.304 0.481 1.673 2.080 6.513 2.080zM15.889 5.076c1.148-0.013 2.235-0.261 3.22-0.697l-0.052 0.021-1.144-3.645c-0.099-0.26-0.291-0.466-0.535-0.58l-0.006-0.003s-0.153-0.172-1.329-0.172-1.407 0.181-1.407 0.181c-0.255 0.107-0.451 0.312-0.544 0.567l-0.002 0.007-1.179 3.753c0.883 0.34 1.903 0.546 2.969 0.568l0.009 0zM30.12 31.092c0.002-0.017 0.003-0.036 0.003-0.055 0-0.056-0.009-0.111-0.025-0.162l0.001 0.004-3.112-10.176c-0.118-0.327-0.419-0.559-0.776-0.575l-0.002-0h-2.217l0.267 0.853c-0.32 0.647-1.984 3.173-8.404 3.173-6.133 0-7.771-2.307-8.147-3.077l0.297-0.949h-2.215c-0.359 0.015-0.66 0.248-0.775 0.569l-0.002 0.006-3.112 10.177c-0.015 0.047-0.024 0.102-0.024 0.159 0 0.015 0.001 0.029 0.002 0.043l-0-0.002-0.003 0.027c0.005 0.111 0.016 0.214 0.034 0.316l-0.002-0.015c0.054 0.333 0.337 0.586 0.679 0.593h26.826c0.343-0.008 0.626-0.26 0.679-0.589l0.001-0.004c0.015-0.087 0.026-0.191 0.030-0.296l0-0.005z"></path>
</svg>
