<!-- Generated by IcoMoon.io -->
<svg version="1.1" xmlns="http://www.w3.org/2000/svg" width="32" height="32" viewBox="0 0 32 32">
<title>yandex</title>
<path fill="#f00" d="M2.536 21.799v-3.8l-2.536-6.801h1.276l1.867 5.251 2.151-6.351h1.169l-2.759 7.947v3.753h-1.168zM10.053 21.799h-0.979c-0.044-0.167-0.087-0.4-0.1-0.596h-0.076c-0.328 0.417-0.745 0.7-1.401 0.7-1.064 0-1.792-0.801-1.792-2.272 0-1.6 0.815-2.608 2.907-2.608h0.164v-0.444c0-0.98-0.328-1.397-0.98-1.397-0.593 0-1.099 0.312-1.483 0.653l-0.223-1.021c0.341-0.284 1.021-0.596 1.781-0.596 1.32 0 2.044 0.565 2.044 2.375v3.515c0 0.712 0.073 1.336 0.133 1.689l0.004 0.003zM8.78 17.899h-0.135c-1.44 0-1.751 0.639-1.751 1.6 0 0.86 0.28 1.423 0.873 1.423 0.4 0 0.801-0.267 1.009-0.593l0.003-2.429zM12.516 21.799h-1.159v-7.495h1.159v0.655h0.075c0.205-0.28 0.771-0.741 1.468-0.741 0.976 0 1.495 0.549 1.495 1.691v5.891h-1.171v-5.787c0-0.564-0.251-0.76-0.699-0.76-0.485 0-0.9 0.372-1.169 0.745v5.8l0.001 0.001zM16.696 18.343c0-2.773 1.040-4.125 2.535-4.125 0.357 0 0.727 0.12 0.951 0.281v-3.301h1.159v10.6h-0.86l-0.092-0.593h-0.073c-0.327 0.416-0.741 0.695-1.351 0.695-1.467 0-2.265-1.244-2.265-3.556h-0.003zM20.183 15.523c-0.235-0.235-0.488-0.355-0.875-0.355-0.933 0-1.38 1.409-1.38 2.936 0 1.751 0.328 2.819 1.175 2.819 0.581 0 0.888-0.284 1.081-0.58v-4.82zM24.988 21.903c-1.54 0-2.492-1.232-2.492-3.529 0-2.405 0.668-4.155 2.253-4.155 1.247 0 2.059 0.935 2.059 3.472v0.637h-3.108c0 1.691 0.473 2.58 1.393 2.58 0.652 0 1.129-0.296 1.424-0.504l0.267 0.889c-0.472 0.371-1.053 0.608-1.793 0.608l-0.003 0.001zM23.712 17.377h1.913c0-1.276-0.207-2.209-0.875-2.209-0.709 0-0.96 0.876-1.040 2.209h0.001zM31.839 14.321l-1.393 3.5 1.555 3.977h-1.199l-1.16-3.085-1.125 3.084h-1.14l1.555-3.872-1.409-3.603h1.201l0.969 2.713 1.020-2.715h1.128z"></path>
</svg>
