<!-- Generated by IcoMoon.io -->
<svg version="1.1" xmlns="http://www.w3.org/2000/svg" width="32" height="32" viewBox="0 0 32 32">
<title>nvidia</title>
<path fill="#76b900" d="M11.931 11.731v-1.907c0.165-0.013 0.362-0.022 0.56-0.024l0.005-0c5.229-0.165 8.657 4.499 8.657 4.499s-3.699 5.135-7.667 5.135c-0.531 0-1.049-0.083-1.544-0.247v-5.795c2.037 0.247 2.449 1.143 3.663 3.18l2.72-2.285s-1.989-2.603-5.333-2.603c-0.053-0.001-0.116-0.002-0.179-0.002-0.311 0-0.618 0.018-0.919 0.052l0.037-0.003zM11.931 5.417v2.851l0.565-0.036c7.267-0.247 12.013 5.96 12.013 5.96s-5.44 6.619-11.107 6.619c-0.493 0-0.977-0.047-1.46-0.129v1.767c0.4 0.047 0.813 0.083 1.213 0.083 5.276 0 9.093-2.697 12.791-5.877 0.612 0.495 3.12 1.684 3.64 2.203-3.511 2.944-11.696 5.312-16.337 5.312-0.447 0-0.871-0.024-1.295-0.071v2.485h20.045v-21.165zM11.931 19.185v1.508c-4.876-0.872-6.231-5.947-6.231-5.947s2.344-2.592 6.231-3.016v1.649h-0.011c-2.037-0.248-3.64 1.66-3.64 1.66s0.907 3.216 3.652 4.147zM3.275 14.533s2.885-4.263 8.667-4.711v-1.555c-6.404 0.519-11.941 5.936-11.941 5.936s3.133 9.069 11.931 9.893v-1.649c-6.453-0.8-8.656-7.915-8.656-7.915z"></path>
</svg>
