<!-- Generated by IcoMoon.io -->
<svg version="1.1" xmlns="http://www.w3.org/2000/svg" width="32" height="32" viewBox="0 0 32 32">
<title>wikipedia</title>
<path d="M16.12 17.492c-1.248 2.576-2.956 6.064-3.804 7.637-0.821 1.432-1.503 1.241-2.043 0.039-1.875-4.428-5.724-12.192-7.535-16.545-0.335-0.801-0.588-1.316-0.825-1.519-0.241-0.2-0.739-0.32-1.496-0.361-0.28-0.032-0.417-0.1-0.417-0.212v-0.607l0.069-0.060c1.232-0.007 7.201 0 7.201 0l0.068 0.060v0.579c0 0.159-0.1 0.235-0.3 0.235l-0.752 0.041c-0.647 0.039-0.969 0.219-0.969 0.581 0 0.18 0.071 0.44 0.221 0.801 1.443 3.528 6.424 14.028 6.424 14.028l0.181 0.061 3.215-6.413-0.643-1.423-2.211-4.352s-0.424-0.872-0.571-1.163c-0.971-1.924-0.949-2.024-1.929-2.156-0.276-0.031-0.417-0.067-0.417-0.199v-0.624l0.080-0.060h5.723l0.151 0.049v0.601c0 0.14-0.101 0.2-0.303 0.2l-0.411 0.063c-1.056 0.081-0.881 0.508-0.181 1.896l2.109 4.336 2.344-4.672c0.391-0.853 0.311-1.068 0.148-1.263-0.093-0.112-0.407-0.293-1.083-0.32l-0.268-0.028c-0.069 0-0.131-0.020-0.193-0.068-0.060-0.041-0.089-0.101-0.089-0.172v-0.569l0.081-0.060c1.663-0.011 5.391 0 5.391 0l0.079 0.060v0.581c0 0.161-0.079 0.237-0.257 0.237-0.861 0.040-1.043 0.127-1.364 0.585-0.16 0.248-0.5 0.785-0.861 1.385l-3.068 5.697-0.087 0.18 3.723 7.616 0.227 0.064 5.861-13.917c0.205-0.563 0.172-0.963-0.085-1.193-0.263-0.229-0.461-0.364-1.143-0.393l-0.56-0.021c-0.081 0-0.14-0.019-0.203-0.060-0.057-0.039-0.096-0.1-0.096-0.159v-0.581l0.079-0.060h6.615l0.055 0.060v0.583c0 0.159-0.099 0.24-0.279 0.24-0.864 0.040-1.503 0.24-1.924 0.561-0.419 0.34-0.743 0.821-0.981 1.423 0 0-5.391 12.344-7.235 16.452-0.7 1.343-1.404 1.223-2.004-0.041-0.761-1.561-2.364-5.048-3.528-7.613l0.071-0.048z"></path>
</svg>
